HIERARCHY
ROOT Hips
{
	OFFSET 0.000000 88.474243 0.000000
	CHANNELS 6 Xposition Yposition Zposition Zrotation Yrotation Xrotation 
	JOINT Hips_Spine
	{
		OFFSET 0.000000 0.000000 0.000000
		CHANNELS 3 Zrotation Yrotation Xrotation
		JOINT Spine
		{
			OFFSET 0.005100 8.711998 -0.691000
			CHANNELS 3 Zrotation Yrotation Xrotation
			JOINT Spine1
			{
				OFFSET -0.009200 8.660301 -1.275000
				CHANNELS 3 Zrotation Yrotation Xrotation
				JOINT Spine2
				{
					OFFSET 0.006300 9.852501 -1.857000
					CHANNELS 3 Zrotation Yrotation Xrotation
					JOINT Spine2_Neck
					{
						OFFSET 0.000000 0.000000 0.000000
						CHANNELS 3 Zrotation Yrotation Xrotation
						JOINT Neck
						{
							OFFSET 0.016300 11.420799 -0.263300
							CHANNELS 3 Zrotation Yrotation Xrotation
							End Site #name: Head
							{
								OFFSET -0.019200 9.262405 2.362500
							}
						}
					}
					JOINT Spine2_LeftShoulder
					{
						OFFSET 0.000000 0.000000 0.000000
						CHANNELS 3 Zrotation Yrotation Xrotation
						JOINT LeftShoulder
						{
							OFFSET 5.616900 6.732201 -0.345700
							CHANNELS 3 Zrotation Yrotation Xrotation
							JOINT LeftArm
							{
								OFFSET 10.664888 -0.183372 -2.440700
								CHANNELS 3 Zrotation Yrotation Xrotation
								JOINT LeftForeArm
								{
									OFFSET 27.459126 0.000000 0.000000
									CHANNELS 3 Zrotation Yrotation Xrotation
									End Site #name: LeftHand
									{
										OFFSET 21.306858 0.000000 0.000000
									}
								}
							}
						}
					}
					JOINT Spine2_RightShoulder
					{
						OFFSET 0.000000 0.000000 0.000000
						CHANNELS 3 Zrotation Yrotation Xrotation
						JOINT RightShoulder
						{
							OFFSET -5.580300 6.737503 -0.344400
							CHANNELS 3 Zrotation Yrotation Xrotation
							JOINT RightArm
							{
								OFFSET -10.679335 -0.188484 -2.383900
								CHANNELS 3 Zrotation Yrotation Xrotation
								JOINT RightForeArm
								{
									OFFSET -27.503529 0.000000 0.000000
									CHANNELS 3 Zrotation Yrotation Xrotation
									End Site #name: RightHand
									{
										OFFSET -21.306808 0.000000 0.000000
									}
								}
							}
						}
					}
				}
			}
		}
	}
	JOINT Hips_LeftUpLeg
	{
		OFFSET 0.000000 0.000000 0.000000
		CHANNELS 3 Zrotation Yrotation Xrotation
		JOINT LeftUpLeg
		{
			OFFSET 6.857700 -6.739601 0.312100
			CHANNELS 3 Zrotation Yrotation Xrotation
			JOINT LeftLeg
			{
				OFFSET -0.367590 -34.731552 -4.572400
				CHANNELS 3 Zrotation Yrotation Xrotation
				End Site #name: LeftFoot
				{
					OFFSET 0.367590 -34.656704 -6.067400
				}
			}
		}
	}
	JOINT Hips_RightUpLeg
	{
		OFFSET 0.000000 0.000000 0.000000
		CHANNELS 3 Zrotation Yrotation Xrotation
		JOINT RightUpLeg
		{
			OFFSET -6.876100 -6.733299 0.301000
			CHANNELS 3 Zrotation Yrotation Xrotation
			JOINT RightLeg
			{
				OFFSET 0.347353 -34.795158 -4.515900
				CHANNELS 3 Zrotation Yrotation Xrotation
				End Site #name: RightFoot
				{
					OFFSET -0.347353 -34.589367 -6.070300
				}
			}
		}
	}
}
MOTION
Frames: 9
Frame Time: 0.041667
0.051947 0.021677 0.041867 -0.729611 1.986721 -3.140256 0.000000 -0.000000 0.000000 1.404357 2.562317 6.437928 -2.728248 1.454108 4.178261 0.000000 0.000000 0.000000 -2.182469 1.007294 1.487598 2.551712 -0.787914 -0.465282 -3.120824 0.746845 4.281390 -2.274625 2.742309 -0.312214 -70.604926 -12.077162 48.218455 0.207437 -50.077905 0.516681 -2.083923 1.217386 3.140935 3.191497 1.138933 3.013270 79.826575 -4.170383 46.051596 -0.077689 36.837353 0.644524 0.000000 0.000000 0.000000 1.458548 7.205755 -12.792446 3.003544 6.950212 17.024466 0.000000 0.000000 0.000000 -3.551459 -10.645961 -11.575716 -2.678274 -5.199081 15.023950 
0.099686 0.085774 0.014220 -0.878595 2.490726 -3.111062 0.000000 -0.000000 0.000000 -0.077302 1.602250 2.199171 -2.099824 0.813013 4.194610 0.000000 0.000000 0.000000 -2.205712 0.760015 3.722486 1.925735 -0.049724 0.141117 -2.268216 0.536183 4.550362 0.190669 5.001547 -0.907273 -66.392270 -6.771633 57.353879 0.115697 -43.629826 0.563840 -2.140762 0.536786 3.649407 3.365306 2.493258 1.697389 84.982666 0.659075 50.115106 0.132043 23.961137 0.457531 0.000000 0.000000 -0.000000 1.718722 7.573098 -11.260725 2.895030 7.948136 14.662506 0.000000 0.000000 0.000000 -3.166211 -10.251341 -11.166444 -2.535956 -4.473081 14.578615 
0.209446 0.093795 -0.029995 -1.189047 2.853751 -3.223867 0.000000 0.000000 0.000000 -0.444511 1.392685 0.510067 -1.425053 0.597668 4.058423 0.000000 0.000000 0.000000 -1.807887 0.523244 3.529830 1.294821 -0.113376 2.479000 -1.662871 0.486580 4.298222 -0.852626 6.638289 -1.068464 -64.215185 -5.297669 62.548391 0.191629 -37.517599 0.136033 -1.538861 0.489901 3.339846 3.738932 3.083386 1.030682 81.394289 -0.880544 47.849505 0.055607 22.578526 0.182519 -0.000000 0.000000 -0.000000 2.117564 9.150679 -10.904371 3.014259 8.177568 14.417311 0.000000 0.000000 0.000000 -3.046741 -9.831541 -11.195282 -2.489968 -4.399632 14.893201 
0.344156 0.084844 -0.085857 -1.412322 3.017315 -3.305136 0.000000 0.000000 0.000000 -0.601263 1.363127 0.289562 -1.403255 0.668767 4.333351 0.000000 0.000000 0.000000 -1.679701 0.541288 3.683980 0.740900 -0.482406 4.307780 -1.540926 0.493492 4.375537 -0.595881 6.097030 -1.092893 -64.834436 -6.623286 63.069433 0.277028 -29.459550 0.020626 -1.315800 0.563993 3.611686 3.285051 4.733234 1.349187 80.054267 0.612065 49.566079 0.007903 24.993537 0.010957 -0.000000 0.000000 -0.000000 2.292702 10.643453 -10.890787 3.327234 8.391585 14.611606 0.000000 0.000000 0.000000 -2.900427 -9.878393 -11.356397 -2.515423 -3.990103 15.212736 
0.501778 0.075546 -0.141858 -1.539734 3.200937 -3.335913 0.000000 -0.000000 0.000000 -0.681739 1.469561 0.365332 -1.635357 0.721880 4.472588 0.000000 0.000000 0.000000 -1.896404 0.604425 3.817568 0.449637 -0.713184 5.080064 -1.750571 0.511302 4.515642 -0.886371 5.348944 -1.029809 -65.800980 -8.119357 63.203278 0.333690 -27.487644 -0.029443 -1.572670 0.640906 3.808243 2.840153 6.324076 1.762997 79.396953 1.269278 52.011338 -0.003507 27.884044 -0.022901 -0.000000 0.000000 -0.000000 2.374712 11.617567 -10.967295 3.516403 8.584848 14.837615 0.000000 0.000000 0.000000 -2.875269 -9.921736 -11.424489 -2.401888 -3.575336 15.332207 
0.670838 0.067045 -0.196171 -1.633642 3.386234 -3.346757 0.000000 -0.000000 0.000000 -0.694925 1.616908 0.287784 -1.903659 0.730202 4.577426 0.000000 0.000000 0.000000 -2.192158 0.656289 3.913180 0.239098 -0.889242 5.635470 -2.009497 0.529629 4.657551 -1.299227 4.570041 -0.928013 -66.248215 -8.960433 63.092247 0.355775 -27.136744 -0.051563 -1.885782 0.675210 3.909327 2.561830 7.400387 2.055389 78.642769 1.713904 52.810072 -0.036322 29.507290 0.002801 -0.000000 0.000000 -0.000000 2.383512 12.100584 -11.012878 3.603133 8.717861 14.965602 0.000000 0.000000 0.000000 -2.902438 -9.972666 -11.383203 -2.248398 -3.141677 15.234052 
0.841549 0.059502 -0.249134 -1.716911 3.524169 -3.342270 0.000000 -0.000000 0.000000 -0.616190 1.732839 0.289903 -2.117962 0.748803 4.664652 0.000000 0.000000 0.000000 -2.410933 0.691764 3.992173 0.123076 -1.015536 5.907390 -2.187452 0.539520 4.781490 -1.462687 4.202359 -0.858372 -66.231740 -9.165062 62.932456 0.352824 -27.555701 -0.025887 -2.106731 0.694396 3.975154 2.316562 7.729962 2.155032 77.892070 1.726077 53.304675 -0.046551 30.950972 0.023493 -0.000000 0.000000 -0.000000 2.360337 12.385962 -11.058224 3.632695 8.759672 15.045003 0.000000 0.000000 0.000000 -2.938898 -10.021399 -11.331683 -2.054989 -2.743193 15.096213 
1.004657 0.052460 -0.300875 -1.809404 3.616851 -3.333097 0.000000 -0.000000 0.000000 -0.510002 1.820510 0.297437 -2.239581 0.755458 4.722534 0.000000 0.000000 0.000000 -2.530161 0.713995 4.043300 0.092735 -1.069138 5.962312 -2.290739 0.553667 4.859493 -1.516156 4.142860 -0.825818 -66.095920 -9.034303 62.960072 0.339830 -28.423889 -0.004925 -2.234177 0.714967 4.018043 2.110564 7.860490 2.182320 77.512473 1.849354 53.098014 -0.039102 33.237591 0.044948 -0.000000 0.000000 -0.000000 2.337764 12.594724 -11.128680 3.665814 8.776001 15.136236 0.000000 0.000000 0.000000 -2.956383 -10.057024 -11.322150 -1.910129 -2.456606 15.013906 
1.150501 0.046589 -0.351220 -1.914261 3.671681 -3.323468 0.000000 -0.000000 0.000000 -0.447321 1.850339 0.298831 -2.307164 0.759443 4.753966 0.000000 0.000000 0.000000 -2.600328 0.727121 4.072297 0.086036 -1.080415 5.948724 -2.355198 0.569611 4.901492 -1.497897 4.328917 -0.819943 -65.889251 -8.688629 63.163766 0.330163 -29.187506 0.002679 -2.305817 0.723366 4.030256 1.926523 7.990862 2.208151 77.239566 1.968916 52.769030 -0.029508 36.614908 0.068771 -0.000000 0.000000 -0.000000 2.328533 12.737426 -11.207266 3.702307 8.777250 15.238087 0.000000 0.000000 0.000000 -2.956255 -10.080359 -11.334840 -1.832119 -2.298031 14.957521 
